# xmcd CD database file
#
# Track frame offsets:
#	150
#	6618
#	27840
#	50538
#	65133
#	86568
#	93927
#	125274
#	146634
#	169857
#	203328
#	210450
#	225168
#	258993
#
# Disc length: 3558 seconds
#
# Revision: 0
# Processed by: cddbd v1.5.2PL0 Copyright (c) Steve Scherf et al.
# Submitted via: CDex 1.70beta2
#
DISCID=b70de40e
DTITLE=Bressan - Tasca - Variazioni Climatiche
DYEAR=2005
DGENRE=Jazz
TTITLE0=IHI
TTITLE1=CHORINHO
TTITLE2=ARIOSO
TTITLE3=BALLADE
TTITLE4=FLAPING MAJA
TTITLE5=A CHILD IS BORN
TTITLE6=DESPERATION
TTITLE7=NINNI
TTITLE8=DOPPIO GIOCO
TTITLE9=ARIA INTERMEDIA
TTITLE10=LORO
TTITLE11=MEMORIA E FADO
TTITLE12=CRYSTAL SILENCE-CAPTAIN ARVEL
TTITLE13=THULA, STANDWA
EXTD=YEAR: 2005
EXTT0=
EXTT1=
EXTT2=
EXTT3=
EXTT4=
EXTT5=
EXTT6=
EXTT7=
EXTT8=
EXTT9=
EXTT10=
EXTT11=
EXTT12=
EXTT13=
PLAYORDER=
